<svg width="317" height="70" viewBox="0 0 317 70" fill="none" xmlns="http://www.w3.org/2000/svg">
<mask id="mask0_10_2" style="mask-type:alpha" maskUnits="userSpaceOnUse" x="0" y="12" width="36" height="46">
<path d="M0 57.727V30.4512L7.42061 34.0613L11.1309 31.454V57.727H0Z" fill="black"/>
<path d="M23.4652 21.8273L12.234 29.1476L12.3343 57.6267H23.4652V21.8273Z" fill="black"/>
<path d="M24.6685 19.2201L36 12L35.8997 57.727H24.6685V19.2201Z" fill="black"/>
</mask>
<g mask="url(#mask0_10_2)">
<rect y="57.727" width="45.727" height="36.1003" transform="rotate(-90 0 57.727)" fill="url(#paint0_linear_10_2)"/>
</g>
<path d="M41.088 55V27.504H46.408L46.856 31.256H47.08C48.2373 30.024 49.488 28.9787 50.832 28.12C52.2133 27.2613 53.7627 26.832 55.48 26.832C57.496 26.832 59.1013 27.28 60.296 28.176C61.528 29.0347 62.4613 30.2293 63.096 31.76C64.4027 30.3413 65.7653 29.1653 67.184 28.232C68.64 27.2987 70.2267 26.832 71.944 26.832C74.856 26.832 77.0027 27.784 78.384 29.688C79.7653 31.592 80.456 34.28 80.456 37.752V55H73.96V38.592C73.96 36.3147 73.6053 34.7093 72.896 33.776C72.224 32.8427 71.1787 32.376 69.76 32.376C68.0427 32.376 66.12 33.5147 63.992 35.792V55H57.552V38.592C57.552 36.3147 57.1973 34.7093 56.488 33.776C55.816 32.8427 54.752 32.376 53.296 32.376C51.5787 32.376 49.656 33.5147 47.528 35.792V55H41.088ZM94.9473 55.672C92.558 55.672 90.598 54.9253 89.0673 53.432C87.574 51.9387 86.8273 49.9973 86.8273 47.608C86.8273 44.6587 88.1153 42.3813 90.6913 40.776C93.2673 39.1333 97.374 38.0133 103.011 37.416C102.974 35.96 102.582 34.7093 101.835 33.664C101.126 32.5813 99.838 32.04 97.9713 32.04C96.6273 32.04 95.302 32.3013 93.9953 32.824C92.726 33.3467 91.4753 33.9813 90.2433 34.728L87.8913 30.416C89.422 29.4453 91.1393 28.6053 93.0433 27.896C94.9846 27.1867 97.038 26.832 99.2033 26.832C102.638 26.832 105.195 27.8587 106.875 29.912C108.593 31.928 109.451 34.8587 109.451 38.704V55H104.131L103.683 51.976H103.459C102.227 53.0213 100.902 53.8987 99.4833 54.608C98.102 55.3173 96.59 55.672 94.9473 55.672ZM97.0193 50.632C98.1393 50.632 99.1473 50.3707 100.043 49.848C100.977 49.288 101.966 48.5413 103.011 47.608V41.448C99.278 41.9333 96.6833 42.6613 95.2273 43.632C93.7713 44.5653 93.0433 45.7227 93.0433 47.104C93.0433 48.336 93.4166 49.232 94.1633 49.792C94.91 50.352 95.862 50.632 97.0193 50.632ZM117.158 55V27.504H122.478L122.926 31.2H123.15C124.382 30.0053 125.726 28.9787 127.182 28.12C128.638 27.2613 130.3 26.832 132.166 26.832C135.116 26.832 137.262 27.784 138.606 29.688C139.95 31.592 140.622 34.28 140.622 37.752V55H134.182V38.592C134.182 36.3147 133.846 34.7093 133.174 33.776C132.502 32.8427 131.401 32.376 129.87 32.376C128.676 32.376 127.612 32.6747 126.678 33.272C125.782 33.832 124.756 34.672 123.598 35.792V55H117.158ZM158.182 55.672C155.009 55.672 152.75 54.7573 151.406 52.928C150.1 51.0613 149.446 48.6533 149.446 45.704V32.6H145.526V27.784L149.782 27.504L150.566 20H155.942V27.504H162.942V32.6H155.942V45.704C155.942 48.9147 157.23 50.52 159.806 50.52C160.292 50.52 160.796 50.464 161.318 50.352C161.841 50.2027 162.289 50.0533 162.662 49.904L163.782 54.664C163.036 54.9253 162.177 55.1493 161.206 55.336C160.273 55.56 159.265 55.672 158.182 55.672ZM168.729 55V27.504H174.049L174.497 32.376H174.721C175.691 30.584 176.867 29.2213 178.249 28.288C179.63 27.3173 181.049 26.832 182.505 26.832C183.811 26.832 184.857 27.0187 185.641 27.392L184.521 32.992C184.035 32.8427 183.587 32.7307 183.177 32.656C182.766 32.5813 182.262 32.544 181.665 32.544C180.582 32.544 179.443 32.9733 178.249 33.832C177.054 34.6533 176.027 36.1093 175.169 38.2V55H168.729ZM194.807 55.672C192.417 55.672 190.457 54.9253 188.927 53.432C187.433 51.9387 186.687 49.9973 186.687 47.608C186.687 44.6587 187.975 42.3813 190.551 40.776C193.127 39.1333 197.233 38.0133 202.871 37.416C202.833 35.96 202.441 34.7093 201.695 33.664C200.985 32.5813 199.697 32.04 197.831 32.04C196.487 32.04 195.161 32.3013 193.855 32.824C192.585 33.3467 191.335 33.9813 190.103 34.728L187.751 30.416C189.281 29.4453 190.999 28.6053 192.903 27.896C194.844 27.1867 196.897 26.832 199.063 26.832C202.497 26.832 205.055 27.8587 206.735 29.912C208.452 31.928 209.311 34.8587 209.311 38.704V55H203.991L203.543 51.976H203.319C202.087 53.0213 200.761 53.8987 199.343 54.608C197.961 55.3173 196.449 55.672 194.807 55.672ZM196.879 50.632C197.999 50.632 199.007 50.3707 199.903 49.848C200.836 49.288 201.825 48.5413 202.871 47.608V41.448C199.137 41.9333 196.543 42.6613 195.087 43.632C193.631 44.5653 192.903 45.7227 192.903 47.104C192.903 48.336 193.276 49.232 194.023 49.792C194.769 50.352 195.721 50.632 196.879 50.632ZM223.29 55.672C221.012 55.672 219.388 54.9813 218.418 53.6C217.484 52.2187 217.018 50.3333 217.018 47.944V15.464H223.458V48.28C223.458 49.064 223.607 49.624 223.906 49.96C224.204 50.2587 224.522 50.408 224.858 50.408C225.007 50.408 225.138 50.408 225.25 50.408C225.399 50.3707 225.604 50.3333 225.866 50.296L226.706 55.112C226.332 55.2613 225.847 55.392 225.25 55.504C224.69 55.616 224.036 55.672 223.29 55.672ZM234.069 66.312C233.322 66.312 232.669 66.256 232.109 66.144C231.549 66.032 231.007 65.9013 230.485 65.752L231.661 60.712C231.922 60.7867 232.221 60.8613 232.557 60.936C232.93 61.048 233.285 61.104 233.621 61.104C235.077 61.104 236.234 60.656 237.093 59.76C237.989 58.9013 238.661 57.7813 239.109 56.4L239.613 54.664L228.805 27.504H235.357L240.117 41C240.527 42.1947 240.919 43.464 241.293 44.808C241.703 46.1147 242.114 47.4213 242.525 48.728H242.749C243.085 47.4587 243.421 46.1707 243.757 44.864C244.13 43.52 244.485 42.232 244.821 41L248.965 27.504H255.181L245.213 56.232C244.055 59.3307 242.655 61.776 241.013 63.568C239.37 65.3973 237.055 66.312 234.069 66.312ZM269.635 55.672C266.462 55.672 264.203 54.7573 262.859 52.928C261.553 51.0613 260.899 48.6533 260.899 45.704V32.6H256.979V27.784L261.235 27.504L262.019 20H267.395V27.504H274.395V32.6H267.395V45.704C267.395 48.9147 268.683 50.52 271.259 50.52C271.745 50.52 272.249 50.464 272.771 50.352C273.294 50.2027 273.742 50.0533 274.115 49.904L275.235 54.664C274.489 54.9253 273.63 55.1493 272.659 55.336C271.726 55.56 270.718 55.672 269.635 55.672ZM280.182 55V27.504H286.622V55H280.182ZM283.43 22.688C282.272 22.688 281.339 22.352 280.63 21.68C279.92 21.008 279.566 20.112 279.566 18.992C279.566 17.9093 279.92 17.032 280.63 16.36C281.339 15.688 282.272 15.352 283.43 15.352C284.587 15.352 285.52 15.688 286.23 16.36C286.939 17.032 287.294 17.9093 287.294 18.992C287.294 20.112 286.939 21.008 286.23 21.68C285.52 22.352 284.587 22.688 283.43 22.688ZM306.318 55.672C303.817 55.672 301.558 55.112 299.542 53.992C297.563 52.8347 295.977 51.192 294.782 49.064C293.625 46.8987 293.046 44.304 293.046 41.28C293.046 38.2187 293.681 35.624 294.95 33.496C296.219 31.3307 297.899 29.688 299.99 28.568C302.118 27.4107 304.395 26.832 306.822 26.832C308.577 26.832 310.107 27.1307 311.414 27.728C312.721 28.3253 313.878 29.0533 314.886 29.912L311.75 34.112C311.041 33.4773 310.313 32.992 309.566 32.656C308.819 32.2827 308.017 32.096 307.158 32.096C304.955 32.096 303.145 32.936 301.726 34.616C300.345 36.296 299.654 38.5173 299.654 41.28C299.654 44.0053 300.326 46.208 301.67 47.888C303.051 49.568 304.825 50.408 306.99 50.408C308.073 50.408 309.081 50.184 310.014 49.736C310.985 49.2507 311.862 48.6907 312.646 48.056L315.278 52.312C314.009 53.432 312.59 54.272 311.022 54.832C309.454 55.392 307.886 55.672 306.318 55.672Z" fill="#1F2225"/>
<defs>
<linearGradient id="paint0_linear_10_2" x1="24.7688" y1="54.3176" x2="-5.27298" y2="99.227" gradientUnits="userSpaceOnUse">
<stop stop-color="#E6FF49"/>
<stop offset="1" stop-color="#2CCF3C"/>
</linearGradient>
</defs>
</svg>
