<svg width="600" height="150" viewBox="0 0 600 150" fill="none" xmlns="http://www.w3.org/2000/svg">
<path d="M82.665 108V56.445H92.64L93.48 63.48H93.9C96.07 61.17 98.415 59.21 100.935 57.6C103.525 55.99 106.43 55.185 109.65 55.185C113.5 55.185 116.545 55.99 118.785 57.6C121.025 59.21 122.74 61.485 123.93 64.425C126.38 61.765 128.935 59.56 131.595 57.81C134.255 56.06 137.23 55.185 140.52 55.185C145.98 55.185 150.005 56.97 152.595 60.54C155.185 64.11 156.48 69.15 156.48 75.66V108H144.3V77.235C144.3 72.965 143.67 69.955 142.41 68.205C141.15 66.455 139.155 65.58 136.425 65.58C134.745 65.58 133.03 66.105 131.28 67.155C129.53 68.205 127.64 69.815 125.61 71.985V108H113.535V77.235C113.535 72.965 112.87 69.955 111.54 68.205C110.28 66.455 108.285 65.58 105.555 65.58C102.335 65.58 98.73 67.715 94.74 71.985V108H82.665ZM183.651 109.26C180.641 109.26 177.981 108.63 175.671 107.37C173.361 106.11 171.541 104.36 170.211 102.12C168.951 99.81 168.321 97.15 168.321 94.14C168.321 88.33 170.736 83.955 175.566 81.015C180.466 78.005 188.201 75.94 198.771 74.82C198.701 73.07 198.351 71.46 197.721 69.99C197.161 68.52 196.181 67.365 194.781 66.525C193.451 65.615 191.631 65.16 189.321 65.16C186.801 65.16 184.316 65.615 181.866 66.525C179.486 67.435 177.141 68.59 174.831 69.99L170.421 61.8C172.311 60.61 174.376 59.525 176.616 58.545C178.856 57.495 181.236 56.69 183.756 56.13C186.276 55.5 188.901 55.185 191.631 55.185C195.901 55.185 199.436 56.06 202.236 57.81C205.106 59.49 207.241 62.01 208.641 65.37C210.111 68.66 210.846 72.72 210.846 77.55V108H200.871L200.031 102.33H199.611C197.231 104.29 194.746 105.935 192.156 107.265C189.566 108.595 186.731 109.26 183.651 109.26ZM187.431 99.39C189.531 99.39 191.456 98.97 193.206 98.13C195.026 97.22 196.881 95.89 198.771 94.14V83.22C194.081 83.78 190.371 84.515 187.641 85.425C184.911 86.335 182.951 87.455 181.761 88.785C180.641 90.045 180.081 91.55 180.081 93.3C180.081 95.47 180.781 97.045 182.181 98.025C183.581 98.935 185.331 99.39 187.431 99.39ZM225.297 108V56.445H235.272L236.112 63.375H236.532C238.842 61.135 241.362 59.21 244.092 57.6C246.822 55.99 249.937 55.185 253.437 55.185C258.967 55.185 262.992 56.97 265.512 60.54C268.032 64.11 269.292 69.15 269.292 75.66V108H257.217V77.235C257.217 72.965 256.587 69.955 255.327 68.205C254.067 66.455 252.002 65.58 249.132 65.58C246.892 65.58 244.897 66.14 243.147 67.26C241.467 68.31 239.542 69.885 237.372 71.985V108H225.297ZM302.217 109.05C296.267 109.05 292.032 107.335 289.512 103.905C287.062 100.405 285.837 95.89 285.837 90.36V66H278.487V56.97L286.467 56.445L287.937 40.275H298.017V56.445H311.142V66H298.017V90.36C298.017 93.37 298.612 95.645 299.802 97.185C300.992 98.655 302.812 99.39 305.262 99.39C306.172 99.39 307.082 99.32 307.992 99.18C308.902 99.04 309.777 98.76 310.617 98.34L312.822 106.845C311.492 107.475 309.917 108 308.097 108.42C306.277 108.84 304.317 109.05 302.217 109.05ZM321.991 108V56.445H331.966L332.806 65.58H333.226C335.046 62.22 337.216 59.665 339.736 57.915C342.326 56.095 345.021 55.185 347.821 55.185C349.151 55.185 350.271 55.255 351.181 55.395C352.091 55.535 352.931 55.815 353.701 56.235L351.286 66.525C350.446 66.315 349.676 66.175 348.976 66.105C348.276 65.965 347.366 65.895 346.246 65.895C344.216 65.895 342.081 66.7 339.841 68.31C337.601 69.85 335.676 72.58 334.066 76.5V108H321.991ZM370.99 109.26C367.98 109.26 365.32 108.63 363.01 107.37C360.7 106.11 358.88 104.36 357.55 102.12C356.29 99.81 355.66 97.15 355.66 94.14C355.66 88.33 358.075 83.955 362.905 81.015C367.805 78.005 375.54 75.94 386.11 74.82C386.04 73.07 385.69 71.46 385.06 69.99C384.5 68.52 383.52 67.365 382.12 66.525C380.79 65.615 378.97 65.16 376.66 65.16C374.14 65.16 371.655 65.615 369.205 66.525C366.825 67.435 364.48 68.59 362.17 69.99L357.76 61.8C359.65 60.61 361.715 59.525 363.955 58.545C366.195 57.495 368.575 56.69 371.095 56.13C373.615 55.5 376.24 55.185 378.97 55.185C383.24 55.185 386.775 56.06 389.575 57.81C392.445 59.49 394.58 62.01 395.98 65.37C397.45 68.66 398.185 72.72 398.185 77.55V108H388.21L387.37 102.33H386.95C384.57 104.29 382.085 105.935 379.495 107.265C376.905 108.595 374.07 109.26 370.99 109.26ZM374.77 99.39C376.87 99.39 378.795 98.97 380.545 98.13C382.365 97.22 384.22 95.89 386.11 94.14V83.22C381.42 83.78 377.71 84.515 374.98 85.425C372.25 86.335 370.29 87.455 369.1 88.785C367.98 90.045 367.42 91.55 367.42 93.3C367.42 95.47 368.12 97.045 369.52 98.025C370.92 98.935 372.67 99.39 374.77 99.39ZM424.396 109.05C421.526 109.05 419.216 108.49 417.466 107.37C415.786 106.18 414.561 104.5 413.791 102.33C413.021 100.16 412.636 97.57 412.636 94.56V33.87H424.711V95.19C424.711 96.73 424.991 97.78 425.551 98.34C426.111 98.9 426.741 99.18 427.441 99.18C427.721 99.18 427.966 99.18 428.176 99.18C428.456 99.11 428.806 99.04 429.226 98.97L430.801 108C430.101 108.28 429.191 108.525 428.071 108.735C427.021 108.945 425.796 109.05 424.396 109.05ZM444.607 129.21C443.207 129.21 441.947 129.105 440.827 128.895C439.777 128.685 438.797 128.37 437.887 127.95L440.197 118.92C440.897 119.13 441.527 119.27 442.087 119.34C442.647 119.41 443.207 119.445 443.767 119.445C446.497 119.445 448.667 118.605 450.277 116.925C451.957 115.245 453.217 113.145 454.057 110.625L455.002 107.37L434.737 56.445H447.022L455.947 81.75C456.717 83.99 457.452 86.37 458.152 88.89C458.922 91.34 459.692 93.79 460.462 96.24H460.882C461.512 93.86 462.142 91.445 462.772 88.995C463.472 86.475 464.137 84.06 464.767 81.75L472.537 56.445H484.192L465.502 110.31C464.102 114.16 462.492 117.485 460.672 120.285C458.852 123.155 456.647 125.36 454.057 126.9C451.467 128.44 448.317 129.21 444.607 129.21ZM511.294 109.05C505.344 109.05 501.109 107.335 498.589 103.905C496.139 100.405 494.914 95.89 494.914 90.36V66H487.564V56.97L495.544 56.445L497.014 40.275H507.094V56.445H520.219V66H507.094V90.36C507.094 93.37 507.689 95.645 508.879 97.185C510.069 98.655 511.889 99.39 514.339 99.39C515.249 99.39 516.159 99.32 517.069 99.18C517.979 99.04 518.854 98.76 519.694 98.34L521.899 106.845C520.569 107.475 518.994 108 517.174 108.42C515.354 108.84 513.394 109.05 511.294 109.05ZM531.068 108V56.445H543.143V108H531.068ZM537.053 47.415C534.953 47.415 533.203 46.785 531.803 45.525C530.473 44.265 529.808 42.585 529.808 40.485C529.808 38.385 530.473 36.74 531.803 35.55C533.203 34.29 534.953 33.66 537.053 33.66C539.223 33.66 540.973 34.29 542.303 35.55C543.633 36.74 544.298 38.385 544.298 40.485C544.298 42.585 543.633 44.265 542.303 45.525C540.973 46.785 539.223 47.415 537.053 47.415ZM580.284 109.26C575.524 109.26 571.254 108.21 567.474 106.11C563.694 103.94 560.684 100.86 558.444 96.87C556.274 92.81 555.189 87.945 555.189 82.275C555.189 76.535 556.379 71.67 558.759 67.68C561.139 63.62 564.289 60.54 568.209 58.44C572.199 56.27 576.469 55.185 581.019 55.185C584.309 55.185 587.179 55.745 589.629 56.865C592.149 57.915 594.319 59.28 596.139 60.96L590.364 68.52C589.244 67.47 587.949 66.63 586.479 66C585.079 65.37 583.469 65.055 581.649 65.055C578.919 65.055 576.504 65.79 574.404 67.26C572.304 68.66 570.624 70.655 569.364 73.245C568.174 75.765 567.579 78.775 567.579 82.275C567.579 85.705 568.174 88.715 569.364 91.305C570.554 93.825 572.164 95.82 574.194 97.29C576.294 98.69 578.709 99.39 581.439 99.39C583.469 99.39 585.359 99.005 587.109 98.235C588.929 97.465 590.539 96.485 591.939 95.295L596.874 102.75C594.704 104.71 592.184 106.285 589.314 107.475C586.514 108.665 583.504 109.26 580.284 109.26Z" fill="#1F2225"/>
<path d="M32.8241 25.6572C41.887 16.5943 39.884 6.7762 37.7496 3C50.7529 12.0629 48.4215 20.5676 45.6304 23.687C31.839 34.7201 37.9138 46.0159 42.6751 50.2846C28.4897 38.4635 30.1972 28.9409 32.8241 25.6572Z" fill="#1F2225"/>
<path d="M22.0084 31.1162C26.1622 26.9624 25.2442 22.4624 24.2659 20.7317C30.2257 24.8855 29.1572 28.7835 27.8779 30.2132C21.5569 35.2701 24.3412 40.4473 26.5234 42.4038C20.0218 36.9858 20.8044 32.6213 22.0084 31.1162Z" fill="#1F2225"/>
<path d="M49.2366 37.8184C46.5738 40.4812 47.1623 43.3659 47.7894 44.4753C43.969 41.8126 44.6539 39.3138 45.474 38.3973C49.526 35.1557 47.7412 31.8369 46.3423 30.5827C50.5101 34.0558 50.0084 36.8537 49.2366 37.8184Z" fill="#1F2225"/>
<path d="M0.643526 56.9671C0.309119 55.1835 1.67736 53.5349 3.49195 53.5349H67.1999C69.1134 53.5349 70.5016 55.3565 69.9942 57.2014L69.214 60.0385C69.0804 60.5245 69.0758 61.0369 69.2007 61.5252L70.0774 64.9523C70.5463 66.7852 69.1617 68.5686 67.2698 68.5686H3.44729C1.64762 68.5686 0.283101 66.9455 0.592329 65.1726L1.26836 61.2967C1.32795 60.955 1.32573 60.6055 1.26182 60.2646L0.643526 56.9671Z" fill="#1F2225"/>
<path d="M6.53287 71.9177C6.24829 70.6661 7.19957 69.4742 8.48309 69.4742H62.77C64.0311 69.4742 64.9774 70.6271 64.7317 71.864L57.3756 108.89C57.1896 109.826 56.3682 110.5 55.4139 110.5H16.9017C15.968 110.5 15.1585 109.854 14.9515 108.943L6.53287 71.9177Z" fill="#1F2225"/>
<circle cx="21.1921" cy="88.6739" r="2.35468" fill="#D9D9D9"/>
<circle cx="35.5013" cy="88.6739" r="2.35468" fill="#D9D9D9"/>
<circle cx="49.8105" cy="88.6739" r="2.35468" fill="#D9D9D9"/>
</svg>
