<svg width="238" height="56" viewBox="0 0 238 56" fill="none" xmlns="http://www.w3.org/2000/svg">
<mask id="mask0_3_35" style="mask-type:alpha" maskUnits="userSpaceOnUse" x="0" y="2" width="36" height="46">
<path d="M0 47.727V20.4512L7.42061 24.0613L11.1309 21.454V47.727H0Z" fill="black"/>
<path d="M23.4652 11.8273L12.234 19.1476L12.3343 47.6267H23.4652V11.8273Z" fill="black"/>
<path d="M24.6685 9.22006L36 2L35.8997 47.727H24.6685V9.22006Z" fill="black"/>
</mask>
<g mask="url(#mask0_3_35)">
<rect y="47.727" width="45.727" height="36.1003" transform="rotate(-90 0 47.727)" fill="url(#paint0_linear_3_35)"/>
</g>
<path d="M59.2578 39.6641V26.6094C59.2578 25.6094 59.0547 24.7422 58.6484 24.0078C58.2578 23.2578 57.6641 22.6797 56.8672 22.2734C56.0703 21.8672 55.0859 21.6641 53.9141 21.6641C52.8203 21.6641 51.8594 21.8516 51.0312 22.2266C50.2188 22.6016 49.5781 23.0938 49.1094 23.7031C48.6562 24.3125 48.4297 24.9688 48.4297 25.6719H44.0938C44.0938 24.7656 44.3281 23.8672 44.7969 22.9766C45.2656 22.0859 45.9375 21.2812 46.8125 20.5625C47.7031 19.8281 48.7656 19.25 50 18.8281C51.25 18.3906 52.6406 18.1719 54.1719 18.1719C56.0156 18.1719 57.6406 18.4844 59.0469 19.1094C60.4688 19.7344 61.5781 20.6797 62.375 21.9453C63.1875 23.1953 63.5938 24.7656 63.5938 26.6562V38.4688C63.5938 39.3125 63.6641 40.2109 63.8047 41.1641C63.9609 42.1172 64.1875 42.9375 64.4844 43.625V44H59.9609C59.7422 43.5 59.5703 42.8359 59.4453 42.0078C59.3203 41.1641 59.2578 40.3828 59.2578 39.6641ZM60.0078 28.625L60.0547 31.6719H55.6719C54.4375 31.6719 53.3359 31.7734 52.3672 31.9766C51.3984 32.1641 50.5859 32.4531 49.9297 32.8438C49.2734 33.2344 48.7734 33.7266 48.4297 34.3203C48.0859 34.8984 47.9141 35.5781 47.9141 36.3594C47.9141 37.1562 48.0938 37.8828 48.4531 38.5391C48.8125 39.1953 49.3516 39.7188 50.0703 40.1094C50.8047 40.4844 51.7031 40.6719 52.7656 40.6719C54.0938 40.6719 55.2656 40.3906 56.2812 39.8281C57.2969 39.2656 58.1016 38.5781 58.6953 37.7656C59.3047 36.9531 59.6328 36.1641 59.6797 35.3984L61.5312 37.4844C61.4219 38.1406 61.125 38.8672 60.6406 39.6641C60.1562 40.4609 59.5078 41.2266 58.6953 41.9609C57.8984 42.6797 56.9453 43.2812 55.8359 43.7656C54.7422 44.2344 53.5078 44.4688 52.1328 44.4688C50.4141 44.4688 48.9062 44.1328 47.6094 43.4609C46.3281 42.7891 45.3281 41.8906 44.6094 40.7656C43.9062 39.625 43.5547 38.3516 43.5547 36.9453C43.5547 35.5859 43.8203 34.3906 44.3516 33.3594C44.8828 32.3125 45.6484 31.4453 46.6484 30.7578C47.6484 30.0547 48.8516 29.5234 50.2578 29.1641C51.6641 28.8047 53.2344 28.625 54.9688 28.625H60.0078ZM74.75 24.0547V44H70.4141V18.6406H74.5156L74.75 24.0547ZM73.7188 30.3594L71.9141 30.2891C71.9297 28.5547 72.1875 26.9531 72.6875 25.4844C73.1875 24 73.8906 22.7109 74.7969 21.6172C75.7031 20.5234 76.7812 19.6797 78.0312 19.0859C79.2969 18.4766 80.6953 18.1719 82.2266 18.1719C83.4766 18.1719 84.6016 18.3438 85.6016 18.6875C86.6016 19.0156 87.4531 19.5469 88.1562 20.2812C88.875 21.0156 89.4219 21.9688 89.7969 23.1406C90.1719 24.2969 90.3594 25.7109 90.3594 27.3828V44H86V27.3359C86 26.0078 85.8047 24.9453 85.4141 24.1484C85.0234 23.3359 84.4531 22.75 83.7031 22.3906C82.9531 22.0156 82.0312 21.8281 80.9375 21.8281C79.8594 21.8281 78.875 22.0547 77.9844 22.5078C77.1094 22.9609 76.3516 23.5859 75.7109 24.3828C75.0859 25.1797 74.5938 26.0938 74.2344 27.125C73.8906 28.1406 73.7188 29.2188 73.7188 30.3594ZM107.562 18.6406V21.9688H93.8516V18.6406H107.562ZM98.4922 12.4766H102.828V37.7188C102.828 38.5781 102.961 39.2266 103.227 39.6641C103.492 40.1016 103.836 40.3906 104.258 40.5312C104.68 40.6719 105.133 40.7422 105.617 40.7422C105.977 40.7422 106.352 40.7109 106.742 40.6484C107.148 40.5703 107.453 40.5078 107.656 40.4609L107.68 44C107.336 44.1094 106.883 44.2109 106.32 44.3047C105.773 44.4141 105.109 44.4688 104.328 44.4688C103.266 44.4688 102.289 44.2578 101.398 43.8359C100.508 43.4141 99.7969 42.7109 99.2656 41.7266C98.75 40.7266 98.4922 39.3828 98.4922 37.6953V12.4766ZM116.984 22.625V44H112.648V18.6406H116.867L116.984 22.625ZM124.906 18.5L124.883 22.5312C124.523 22.4531 124.18 22.4062 123.852 22.3906C123.539 22.3594 123.18 22.3438 122.773 22.3438C121.773 22.3438 120.891 22.5 120.125 22.8125C119.359 23.125 118.711 23.5625 118.18 24.125C117.648 24.6875 117.227 25.3594 116.914 26.1406C116.617 26.9062 116.422 27.75 116.328 28.6719L115.109 29.375C115.109 27.8438 115.258 26.4062 115.555 25.0625C115.867 23.7188 116.344 22.5312 116.984 21.5C117.625 20.4531 118.438 19.6406 119.422 19.0625C120.422 18.4688 121.609 18.1719 122.984 18.1719C123.297 18.1719 123.656 18.2109 124.062 18.2891C124.469 18.3516 124.75 18.4219 124.906 18.5ZM142.93 39.6641V26.6094C142.93 25.6094 142.727 24.7422 142.32 24.0078C141.93 23.2578 141.336 22.6797 140.539 22.2734C139.742 21.8672 138.758 21.6641 137.586 21.6641C136.492 21.6641 135.531 21.8516 134.703 22.2266C133.891 22.6016 133.25 23.0938 132.781 23.7031C132.328 24.3125 132.102 24.9688 132.102 25.6719H127.766C127.766 24.7656 128 23.8672 128.469 22.9766C128.938 22.0859 129.609 21.2812 130.484 20.5625C131.375 19.8281 132.438 19.25 133.672 18.8281C134.922 18.3906 136.312 18.1719 137.844 18.1719C139.688 18.1719 141.312 18.4844 142.719 19.1094C144.141 19.7344 145.25 20.6797 146.047 21.9453C146.859 23.1953 147.266 24.7656 147.266 26.6562V38.4688C147.266 39.3125 147.336 40.2109 147.477 41.1641C147.633 42.1172 147.859 42.9375 148.156 43.625V44H143.633C143.414 43.5 143.242 42.8359 143.117 42.0078C142.992 41.1641 142.93 40.3828 142.93 39.6641ZM143.68 28.625L143.727 31.6719H139.344C138.109 31.6719 137.008 31.7734 136.039 31.9766C135.07 32.1641 134.258 32.4531 133.602 32.8438C132.945 33.2344 132.445 33.7266 132.102 34.3203C131.758 34.8984 131.586 35.5781 131.586 36.3594C131.586 37.1562 131.766 37.8828 132.125 38.5391C132.484 39.1953 133.023 39.7188 133.742 40.1094C134.477 40.4844 135.375 40.6719 136.438 40.6719C137.766 40.6719 138.938 40.3906 139.953 39.8281C140.969 39.2656 141.773 38.5781 142.367 37.7656C142.977 36.9531 143.305 36.1641 143.352 35.3984L145.203 37.4844C145.094 38.1406 144.797 38.8672 144.312 39.6641C143.828 40.4609 143.18 41.2266 142.367 41.9609C141.57 42.6797 140.617 43.2812 139.508 43.7656C138.414 44.2344 137.18 44.4688 135.805 44.4688C134.086 44.4688 132.578 44.1328 131.281 43.4609C130 42.7891 129 41.8906 128.281 40.7656C127.578 39.625 127.227 38.3516 127.227 36.9453C127.227 35.5859 127.492 34.3906 128.023 33.3594C128.555 32.3125 129.32 31.4453 130.32 30.7578C131.32 30.0547 132.523 29.5234 133.93 29.1641C135.336 28.8047 136.906 28.625 138.641 28.625H143.68ZM158.797 8V44H154.438V8H158.797ZM172.883 41.375L179.938 18.6406H184.578L174.406 47.9141C174.172 48.5391 173.859 49.2109 173.469 49.9297C173.094 50.6641 172.609 51.3594 172.016 52.0156C171.422 52.6719 170.703 53.2031 169.859 53.6094C169.031 54.0312 168.039 54.2422 166.883 54.2422C166.539 54.2422 166.102 54.1953 165.57 54.1016C165.039 54.0078 164.664 53.9297 164.445 53.8672L164.422 50.3516C164.547 50.3672 164.742 50.3828 165.008 50.3984C165.289 50.4297 165.484 50.4453 165.594 50.4453C166.578 50.4453 167.414 50.3125 168.102 50.0469C168.789 49.7969 169.367 49.3672 169.836 48.7578C170.32 48.1641 170.734 47.3438 171.078 46.2969L172.883 41.375ZM167.703 18.6406L174.289 38.3281L175.414 42.8984L172.297 44.4922L162.969 18.6406H167.703ZM199.109 18.6406V21.9688H185.398V18.6406H199.109ZM190.039 12.4766H194.375V37.7188C194.375 38.5781 194.508 39.2266 194.773 39.6641C195.039 40.1016 195.383 40.3906 195.805 40.5312C196.227 40.6719 196.68 40.7422 197.164 40.7422C197.523 40.7422 197.898 40.7109 198.289 40.6484C198.695 40.5703 199 40.5078 199.203 40.4609L199.227 44C198.883 44.1094 198.43 44.2109 197.867 44.3047C197.32 44.4141 196.656 44.4688 195.875 44.4688C194.812 44.4688 193.836 44.2578 192.945 43.8359C192.055 43.4141 191.344 42.7109 190.812 41.7266C190.297 40.7266 190.039 39.3828 190.039 37.6953V12.4766ZM208.906 18.6406V44H204.547V18.6406H208.906ZM204.219 11.9141C204.219 11.2109 204.43 10.6172 204.852 10.1328C205.289 9.64844 205.93 9.40625 206.773 9.40625C207.602 9.40625 208.234 9.64844 208.672 10.1328C209.125 10.6172 209.352 11.2109 209.352 11.9141C209.352 12.5859 209.125 13.1641 208.672 13.6484C208.234 14.1172 207.602 14.3516 206.773 14.3516C205.93 14.3516 205.289 14.1172 204.852 13.6484C204.43 13.1641 204.219 12.5859 204.219 11.9141ZM226.016 40.9062C227.047 40.9062 228 40.6953 228.875 40.2734C229.75 39.8516 230.469 39.2734 231.031 38.5391C231.594 37.7891 231.914 36.9375 231.992 35.9844H236.117C236.039 37.4844 235.531 38.8828 234.594 40.1797C233.672 41.4609 232.461 42.5 230.961 43.2969C229.461 44.0781 227.812 44.4688 226.016 44.4688C224.109 44.4688 222.445 44.1328 221.023 43.4609C219.617 42.7891 218.445 41.8672 217.508 40.6953C216.586 39.5234 215.891 38.1797 215.422 36.6641C214.969 35.1328 214.742 33.5156 214.742 31.8125V30.8281C214.742 29.125 214.969 27.5156 215.422 26C215.891 24.4688 216.586 23.1172 217.508 21.9453C218.445 20.7734 219.617 19.8516 221.023 19.1797C222.445 18.5078 224.109 18.1719 226.016 18.1719C228 18.1719 229.734 18.5781 231.219 19.3906C232.703 20.1875 233.867 21.2812 234.711 22.6719C235.57 24.0469 236.039 25.6094 236.117 27.3594H231.992C231.914 26.3125 231.617 25.3672 231.102 24.5234C230.602 23.6797 229.914 23.0078 229.039 22.5078C228.18 21.9922 227.172 21.7344 226.016 21.7344C224.688 21.7344 223.57 22 222.664 22.5312C221.773 23.0469 221.062 23.75 220.531 24.6406C220.016 25.5156 219.641 26.4922 219.406 27.5703C219.188 28.6328 219.078 29.7188 219.078 30.8281V31.8125C219.078 32.9219 219.188 34.0156 219.406 35.0938C219.625 36.1719 219.992 37.1484 220.508 38.0234C221.039 38.8984 221.75 39.6016 222.641 40.1328C223.547 40.6484 224.672 40.9062 226.016 40.9062Z" fill="#242424"/>
<defs>
<linearGradient id="paint0_linear_3_35" x1="24.7688" y1="44.3176" x2="-5.27298" y2="89.227" gradientUnits="userSpaceOnUse">
<stop stop-color="#E6FF49"/>
<stop offset="1" stop-color="#2CCF3C"/>
</linearGradient>
</defs>
</svg>
